<svg width="41" height="37" viewBox="0 0 41 37" fill="none" xmlns="http://www.w3.org/2000/svg">
  <path d="M30.2222 28.1875H30.2417M31 22.375H32.1667C33.9787 22.375 34.8846 22.375 35.5994 22.6699C36.5522 23.0632 37.3093 23.8177 37.7041 24.767C38 25.4793 38 26.3819 38 28.1875C38 29.9931 38 30.8957 37.7041 31.608C37.3093 32.5573 36.5522 33.3118 35.5994 33.7051C34.8846 34 33.9787 34 32.1667 34H8.83333C7.02134 34 6.11535 34 5.40067 33.7051C4.44779 33.3118 3.69073 32.5573 3.29602 31.608C3 30.8957 3 29.9931 3 28.1875C3 26.3819 3 25.4793 3.29602 24.767C3.69073 23.8177 4.44779 23.0632 5.40067 22.6699C6.11535 22.375 7.02134 22.375 8.83333 22.375H10M20.5 24.3125V3M20.5 24.3125L14.6667 18.5M20.5 24.3125L26.3333 18.5" stroke="url(#paint0_linear_2_14)" stroke-opacity="0.94" stroke-width="5" stroke-linecap="round" stroke-linejoin="round" />
  <defs>
    <linearGradient id="paint0_linear_2_14" x1="20.5" y1="3" x2="20.5" y2="34" gradientUnits="userSpaceOnUse">
      <stop stop-color="#41CFEE" />
      <stop offset="1" stop-color="#66AFF2" />
    </linearGradient>
  </defs>
</svg>