<svg width="76" height="74" viewBox="0 0 76 74" fill="none" xmlns="http://www.w3.org/2000/svg">
<path d="M74 37C74 56.28 57.9329 72 38 72C18.0671 72 2 56.28 2 37C2 17.72 18.0671 2 38 2C57.9329 2 74 17.72 74 37Z" stroke="#67B6FF" stroke-opacity="0.87" stroke-width="4"/>
<g clip-path="url(#clip0_23_6)">
<path d="M38 13C24.745 13 14 23.7452 14 36.9996C14 50.2546 24.745 61 38 61C51.2549 61 62 50.2547 62 36.9996C62 23.7452 51.255 13 38 13ZM37.9996 50.6792C31.5077 50.6764 26.8697 49.7944 26.978 48.9863C27.5678 44.5699 31.1292 44.1453 33.3907 42.3357C34.4062 41.5233 34.8998 41.7263 34.8998 40.3721C34.8998 39.8984 34.8998 39.0178 34.8998 38.2054C34.2901 37.5287 34.0685 37.6132 33.553 34.9558C32.5112 34.9558 32.5783 33.6015 32.0869 32.4006C31.7035 31.4646 31.9943 31.0606 32.3159 30.8852C32.1423 29.9598 32.252 26.853 33.5846 25.2359L33.3744 23.7688C33.3744 23.7688 33.7934 23.8739 34.8412 23.6636C35.8894 23.4548 38.4041 22.8264 39.8712 24.0833C43.3922 24.601 44.3272 27.4928 43.6404 30.8639C43.9777 31.0258 44.3133 31.4228 43.9123 32.4006C43.4213 33.6015 43.4884 34.9558 42.4467 34.9558C41.9314 37.6132 41.7095 37.5287 41.0998 38.2054C41.0998 39.0179 41.0998 39.8984 41.0998 40.3721C41.0998 41.7263 41.5931 41.5233 42.6086 42.3357C44.8704 44.1452 48.4315 44.5698 49.0216 48.9863C49.1295 49.7944 44.4918 50.6764 37.9996 50.6792Z" fill="url(#paint0_linear_23_6)"/>
</g>
<defs>
<linearGradient id="paint0_linear_23_6" x1="38" y1="13" x2="38" y2="61" gradientUnits="userSpaceOnUse">
<stop stop-color="#41CFEE"/>
<stop offset="1" stop-color="#66AFF2"/>
</linearGradient>
<clipPath id="clip0_23_6">
<rect width="48" height="48" fill="white" transform="translate(14 13)"/>
</clipPath>
</defs>
</svg>
