<svg width="22" height="22" viewBox="0 0 22 22" fill="#fff" xmlns="http://www.w3.org/2000/svg">
  <path d="M12.0785 0C6.60783 0 2.15704 4.45079 2.15704 9.92148C2.15704 11.8602 2.71645 13.6705 3.6817 15.2003L0.645788 18.2362C-0.215263 19.0973 -0.215263 20.4933 0.645788 21.3542C1.50684 22.2153 2.90281 22.2153 3.76377 21.3542L6.79969 18.3183C8.32959 19.2836 10.1399 19.843 12.0785 19.843C17.5492 19.843 22 15.3922 22 9.92148C22 4.45079 17.5493 0 12.0785 0ZM12.0785 17.6382C7.82355 17.6382 4.36181 14.1765 4.36181 9.92148C4.36181 5.6665 7.8235 2.20477 12.0785 2.20477C16.3335 2.20477 19.7952 5.6665 19.7952 9.92148C19.7952 14.1765 16.3336 17.6382 12.0785 17.6382Z" fill="white" />
</svg>