<svg width="29" height="39" viewBox="0 0 29 39" fill="none" xmlns="http://www.w3.org/2000/svg">
  <path fill-rule="evenodd" clip-rule="evenodd" d="M22.3929 19.5C21.6743 19.5 20.3571 19.3596 20.3571 19.1412V39H24.4286V19.1412C24.4286 19.3596 23.1115 19.5 22.3929 19.5ZM24.4286 4.25884V0H20.3571V4.25884C18.3214 5.06419 16.2857 7.2072 16.2857 9.75C16.2857 12.9812 19.0197 15.6 22.3929 15.6C25.766 15.6 28.5 12.9812 28.5 9.75C28.5 7.2072 26.4643 5.06419 24.4286 4.25884ZM8.14286 19.8588V0H4.07143V19.8588C4.71064 19.6404 5.38854 19.5 6.10714 19.5C6.82575 19.5 8.14286 19.6404 8.14286 19.8588ZM12.2143 29.25C12.2143 31.7928 10.1786 33.9358 8.14286 34.7412V39H4.07143V34.7412C2.03572 33.9358 0 31.7928 0 29.25C0 26.0189 2.73396 23.4 6.10714 23.4C9.48032 23.4 12.2143 26.0189 12.2143 29.25Z" fill="#15B4FF" />
</svg>