<svg width="48" height="48" viewBox="0 0 48 48" fill="none" xmlns="http://www.w3.org/2000/svg">
  <g clip-path="url(#clip0_2_15)">
    <path d="M24 0C10.745 0 0 10.7452 0 23.9996C0 37.2546 10.745 48 24 48C37.2549 48 48 37.2547 48 23.9996C48 10.7452 37.255 0 24 0ZM23.9996 37.6792C17.5077 37.6764 12.8697 36.7944 12.978 35.9863C13.5678 31.5699 17.1292 31.1453 19.3907 29.3357C20.4062 28.5233 20.8998 28.7263 20.8998 27.3721C20.8998 26.8984 20.8998 26.0178 20.8998 25.2054C20.2901 24.5287 20.0685 24.6132 19.553 21.9558C18.5112 21.9558 18.5783 20.6015 18.0869 19.4006C17.7035 18.4646 17.9943 18.0606 18.3159 17.8852C18.1423 16.9598 18.252 13.853 19.5846 12.2359L19.3744 10.7688C19.3744 10.7688 19.7934 10.8739 20.8412 10.6636C21.8894 10.4548 24.4041 9.82641 25.8712 11.0833C29.3922 11.601 30.3272 14.4928 29.6404 17.8639C29.9777 18.0258 30.3133 18.4228 29.9123 19.4006C29.4213 20.6015 29.4884 21.9558 28.4467 21.9558C27.9314 24.6132 27.7095 24.5287 27.0998 25.2054C27.0998 26.0179 27.0998 26.8984 27.0998 27.3721C27.0998 28.7263 27.5931 28.5233 28.6086 29.3357C30.8704 31.1452 34.4315 31.5698 35.0216 35.9863C35.1295 36.7944 30.4918 37.6764 23.9996 37.6792Z" fill="url(#paint0_linear_2_15)" />
  </g>
  <defs>
    <linearGradient id="paint0_linear_2_15" x1="24" y1="0" x2="24" y2="48" gradientUnits="userSpaceOnUse">
      <stop stop-color="#41CFEE" />
      <stop offset="1" stop-color="#66AFF2" />
    </linearGradient>
    <clipPath id="clip0_2_15">
      <rect width="48" height="48" fill="white" />
    </clipPath>
  </defs>
</svg>